<?xml version="1.0" encoding="utf-8"?>
<!-- Generator: Adobe Illustrator 24.0.1, SVG Export Plug-In . SVG Version: 6.00 Build 0)  -->
<svg version="1.1" id="Camada_1" xmlns="http://www.w3.org/2000/svg" xmlns:xlink="http://www.w3.org/1999/xlink" x="0px" y="0px"
	 viewBox="0 0 60 53" style="enable-background:new 0 0 60 53;" xml:space="preserve">
<style type="text/css">
	.st0{opacity:0.2;fill:#E6E6E6;}
	.st1{opacity:0.3;fill:#E6E6E6;}
	.st2{opacity:0.4;fill:#E6E6E6;}
	.st3{opacity:0.5;fill:#E6E6E6;}
	.st4{opacity:0.6;fill:#E6E6E6;}
	.st5{opacity:0.7;fill:#E6E6E6;}
	.st6{opacity:0.8;fill:#E6E6E6;}
	.st7{opacity:0.9;fill:#E6E6E6;}
	.st8{fill:#E6E6E6;}
</style>
<circle class="st0" cx="2" cy="2" r="1"/>
<circle class="st1" cx="9" cy="2" r="1"/>
<circle class="st2" cx="16" cy="2" r="1"/>
<circle class="st3" cx="23" cy="2" r="1"/>
<circle class="st4" cx="30" cy="2" r="1"/>
<circle class="st5" cx="37" cy="2" r="1"/>
<circle class="st6" cx="44" cy="2" r="1"/>
<circle class="st7" cx="51" cy="2" r="1"/>
<circle class="st8" cx="58" cy="2" r="1"/>
<circle class="st0" cx="2" cy="7" r="1"/>
<circle class="st1" cx="9" cy="7" r="1"/>
<circle class="st2" cx="16" cy="7" r="1"/>
<circle class="st3" cx="23" cy="7" r="1"/>
<circle class="st4" cx="30" cy="7" r="1"/>
<circle class="st5" cx="37" cy="7" r="1"/>
<circle class="st6" cx="44" cy="7" r="1"/>
<circle class="st7" cx="51" cy="7" r="1"/>
<circle class="st8" cx="58" cy="7" r="1"/>
<circle class="st0" cx="2" cy="13" r="1"/>
<circle class="st1" cx="9" cy="13" r="1"/>
<circle class="st2" cx="16" cy="13" r="1"/>
<circle class="st3" cx="23" cy="13" r="1"/>
<circle class="st4" cx="30" cy="13" r="1"/>
<circle class="st5" cx="37" cy="13" r="1"/>
<circle class="st6" cx="44" cy="13" r="1"/>
<circle class="st7" cx="51" cy="13" r="1"/>
<circle class="st7" cx="58" cy="13" r="1"/>
<circle class="st0" cx="2" cy="18" r="1"/>
<circle class="st1" cx="9" cy="18" r="1"/>
<circle class="st2" cx="16" cy="18" r="1"/>
<circle class="st3" cx="23" cy="18" r="1"/>
<circle class="st4" cx="30" cy="18" r="1"/>
<circle class="st5" cx="37" cy="18" r="1"/>
<circle class="st8" cx="44" cy="18" r="1"/>
<circle class="st6" cx="51" cy="18" r="1"/>
<circle class="st6" cx="58" cy="18" r="1"/>
<circle class="st0" cx="2" cy="23" r="1"/>
<circle class="st1" cx="9" cy="23" r="1"/>
<circle class="st2" cx="16" cy="23" r="1"/>
<circle class="st3" cx="23" cy="23" r="1"/>
<circle class="st4" cx="30" cy="23" r="1"/>
<circle class="st5" cx="37" cy="23" r="1"/>
<circle class="st5" cx="44" cy="23" r="1"/>
<circle class="st5" cx="51" cy="23" r="1"/>
<circle class="st5" cx="58" cy="23" r="1"/>
<circle class="st0" cx="2" cy="28" r="1"/>
<circle class="st1" cx="9" cy="28" r="1"/>
<circle class="st2" cx="16" cy="28" r="1"/>
<circle class="st3" cx="23" cy="28" r="1"/>
<circle class="st4" cx="30" cy="28" r="1"/>
<circle class="st4" cx="37" cy="28" r="1"/>
<circle class="st4" cx="44" cy="28" r="1"/>
<circle class="st4" cx="51" cy="28" r="1"/>
<circle class="st4" cx="58" cy="28" r="1"/>
<circle class="st0" cx="2" cy="34" r="1"/>
<circle class="st1" cx="9" cy="34" r="1"/>
<circle class="st2" cx="16" cy="34" r="1"/>
<circle class="st3" cx="23" cy="34" r="1"/>
<circle class="st3" cx="30" cy="34" r="1"/>
<circle class="st3" cx="37" cy="34" r="1"/>
<circle class="st3" cx="44" cy="34" r="1"/>
<circle class="st3" cx="51" cy="34" r="1"/>
<circle class="st3" cx="58" cy="34" r="1"/>
<circle class="st0" cx="2" cy="39" r="1"/>
<circle class="st1" cx="9" cy="39" r="1"/>
<circle class="st2" cx="16" cy="39" r="1"/>
<circle class="st2" cx="23" cy="39" r="1"/>
<circle class="st2" cx="30" cy="39" r="1"/>
<circle class="st2" cx="37" cy="39" r="1"/>
<circle class="st2" cx="44" cy="39" r="1"/>
<circle class="st2" cx="51" cy="39" r="1"/>
<circle class="st2" cx="58" cy="39" r="1"/>
<circle class="st0" cx="2" cy="45" r="1"/>
<circle class="st1" cx="9" cy="45" r="1"/>
<circle class="st1" cx="16" cy="45" r="1"/>
<circle class="st1" cx="23" cy="45" r="1"/>
<circle class="st1" cx="30" cy="45" r="1"/>
<circle class="st1" cx="37" cy="45" r="1"/>
<circle class="st1" cx="44" cy="45" r="1"/>
<circle class="st1" cx="51" cy="45" r="1"/>
<circle class="st1" cx="58" cy="45" r="1"/>
<circle class="st0" cx="2" cy="51" r="1"/>
<circle class="st0" cx="9" cy="51" r="1"/>
<circle class="st0" cx="16" cy="51" r="1"/>
<circle class="st0" cx="23" cy="51" r="1"/>
<circle class="st0" cx="30" cy="51" r="1"/>
<circle class="st0" cx="37" cy="51" r="1"/>
<circle class="st0" cx="44" cy="51" r="1"/>
<circle class="st0" cx="51" cy="51" r="1"/>
<circle class="st0" cx="58" cy="51" r="1"/>
</svg>
